<?xml version="1.0" encoding="utf-8"?>
<!-- Generator: Adobe Illustrator 24.0.3, SVG Export Plug-In . SVG Version: 6.00 Build 0)  -->
<svg version="1.1" id="Layer_1" xmlns="http://www.w3.org/2000/svg" xmlns:xlink="http://www.w3.org/1999/xlink" x="0px" y="0px"
	 viewBox="0 0 158.12 208.8" style="enable-background:new 0 0 158.12 208.8;" xml:space="preserve">
<style type="text/css">
	.st0{fill:#54B5B5;}
	.st1{fill:#CC830E;}
	.st2{fill:#FFC600;}
	.st3{fill:#0D2A72;}
	.st4{fill:#A01077;}
</style>
<g>
	<g id="logo">
		<path class="st0" d="M4.48,139.22c10.79,40.55,40.13,69.58,76.82,69.58v-69.58L4.48,139.22z"/>
		<path class="st1" d="M76.57,0.08C39.32,3.04,14.08,34.59,4.42,69.61c0,0,70.6,0,70.6,0c0,0,3.17,0,3.17,0c0.7,0,2.41,0,3.11,0V0
			C81.3,0,77.1,0.05,76.57,0.08z"/>
		<path class="st2" d="M83.36,69.61C117.73,68.54,147.23,39.7,158.12,0L81.3,0v69.61C81.33,69.61,83.33,69.61,83.36,69.61z"/>
		<path class="st3" d="M4.67,138.56c-0.06,0.22-0.13,0.44-0.19,0.66c0.11,0,76.72,0,76.82,0V69.61
			C43.6,71.61,14.56,103.32,4.67,138.56z"/>
		<path class="st4" d="M83.36,139.22c34.38-1.07,63.88-29.91,74.76-69.61l-76.82,0v69.61C81.33,139.22,83.33,139.22,83.36,139.22z"
			/>
		<path class="st0" d="M80.8,69.61h-5.78H4.43c-6,21.57-5.84,48.09,0.05,69.61c0.01-0.05,0.05-0.18,0.05-0.18
			c0.04-0.16,0.1-0.32,0.14-0.48c9.89-35.23,38.93-66.95,76.63-68.95H80.8z"/>
	</g>
</g>
</svg>
