<?xml version="1.0" encoding="utf-8"?>
<!-- Generator: Adobe Illustrator 24.0.3, SVG Export Plug-In . SVG Version: 6.00 Build 0)  -->
<svg version="1.1" id="Layer_1" xmlns="http://www.w3.org/2000/svg" xmlns:xlink="http://www.w3.org/1999/xlink" x="0px" y="0px"
	 viewBox="0 0 600 600" style="enable-background:new 0 0 600 600;" xml:space="preserve">
<style type="text/css">
	.st0{fill:#54B5B5;}
	.st1{fill:#CC830E;}
	.st2{fill:#FFC600;}
	.st3{fill:#0D2A72;}
	.st4{fill:#A01077;}
</style>
<g>
	<g id="logo">
		<path class="st0" d="M120.79,383.68c25.94,97.45,96.44,167.19,184.6,167.19V383.68L120.79,383.68z"/>
		<path class="st1" d="M294.02,49.34c-89.51,7.11-150.15,82.92-173.36,167.07c0,0,169.64,0,169.64,0c0,0,7.62,0,7.62,0
			c1.69,0,5.79,0,7.48,0V49.13C305.39,49.13,295.29,49.25,294.02,49.34z"/>
		<path class="st2" d="M310.34,216.4c82.6-2.57,153.49-71.87,179.65-167.27l-184.6,0v167.27
			C305.46,216.4,310.27,216.41,310.34,216.4z"/>
		<path class="st3" d="M121.25,382.08c-0.15,0.53-0.31,1.06-0.46,1.59c0.26,0,184.36,0,184.6,0V216.41
			C214.81,221.21,145.01,297.42,121.25,382.08z"/>
		<path class="st4" d="M310.34,383.68c82.6-2.57,153.49-71.87,179.65-167.27l-184.6,0v167.27
			C305.46,383.68,310.27,383.68,310.34,383.68z"/>
		<path class="st0" d="M304.2,216.41h-13.9H120.66c-14.42,51.83-14.02,115.55,0.13,167.27c0.03-0.13,0.12-0.44,0.12-0.44
			c0.11-0.39,0.23-0.77,0.34-1.16c23.76-84.66,93.56-160.87,184.14-165.68H304.2z"/>
	</g>
</g>
</svg>
