<svg width="153" height="86" viewBox="0 0 153 86" fill="none" xmlns="http://www.w3.org/2000/svg">
<path d="M74.79 11.6C68.33 11.6 63.79 15.14 62.3 20.88L67.77 22.04C68.65 18.34 70.92 16.46 74.57 16.46C78.22 16.46 80.21 18.67 80.21 22.48V25.74C78.11 23.81 75.51 22.81 72.47 22.81C69.43 22.81 67 23.64 65.07 25.24C63.08 26.9 62.09 28.89 62.09 31.26C62.09 36.4 66.23 39.71 72.37 39.71C75.8 39.71 78.5 38.38 80.44 35.68V39.05H86.24V22.53C86.24 15.4 81.88 11.59 74.8 11.59L74.79 11.6ZM80.2 31.32C78.38 33.97 76.11 35.3 73.46 35.3C70.31 35.3 68.27 33.64 68.27 31.21C68.27 28.78 70.37 27.18 73.46 27.18C76.11 27.18 78.38 28.29 80.2 30.5V31.33V31.32Z" fill="white"/>
<path d="M26.47 12.27H20.5V39.07H26.47V12.27Z" fill="white"/>
<path d="M23.48 0.61C21.33 0.61 19.78 2.16 19.78 4.2C19.78 6.24 21.33 7.74 23.48 7.74C25.63 7.74 27.18 6.19 27.18 4.2C27.18 2.21 25.52 0.61 23.48 0.61Z" fill="white"/>
<path d="M11.82 4.64C13.09 4.64 14.14 5.08 15.02 5.97L17.56 1.99C16.29 0.66 14.3 0 11.59 0C9.21 0 7.17 0.66 5.51 1.99C3.8 3.37 2.97 5.19 2.97 7.52C2.97 9.12 3.3 10.67 4.02 12.27H0V17.3H4.25V39.07H10.27V17.3H17.01V12.27H9.88C9.05 10.67 8.66 9.29 8.66 8.13C8.66 5.92 10.04 4.65 11.81 4.65L11.82 4.64Z" fill="white"/>
<path d="M54.24 32.71C53.25 31.88 51.92 30.17 50.26 27.68L47.55 23.48L59.04 12.26H51.64L39.93 24.08V0.66H33.96V39.06H39.93V30.05L42.91 27.12L45.62 31.43C47.44 34.25 49.21 36.29 50.87 37.51C52.47 38.73 54.52 39.33 56.89 39.33C57.83 39.33 58.66 39.27 59.38 39.11L59.44 33.81C59.05 33.92 58.61 33.98 58.11 33.98C56.51 33.98 55.18 33.54 54.24 32.71Z" fill="white"/>
<path d="M97.02 32.65C95.07 32.65 93.48 34.23 93.48 36.19C93.48 38.15 95.06 39.73 97.02 39.73C98.98 39.73 100.56 38.15 100.56 36.19C100.56 34.23 98.98 32.65 97.02 32.65Z" fill="white"/>
<path d="M121.52 78.84C120.53 78.01 119.2 76.3 117.54 73.81L114.83 69.61L126.32 58.39H118.92L107.21 70.21V46.78H101.24V85.18H107.21V76.17L110.19 73.24L112.9 77.55C114.72 80.37 116.49 82.41 118.15 83.63C119.75 84.85 121.8 85.45 124.17 85.45C125.11 85.45 125.94 85.39 126.66 85.23L126.71 79.93C126.32 80.04 125.88 80.1 125.38 80.1C123.78 80.1 122.45 79.66 121.51 78.83L121.52 78.84Z" fill="white"/>
<path d="M89.36 57.96C85.77 57.96 83.23 59.67 81.74 63.04V58.4H75.94V85.2H81.91V71.88C81.91 66.52 84.29 62.93 87.38 62.93C89.65 62.93 90.8 64.31 90.8 67.07C90.8 67.46 90.75 68.18 90.58 69.28L96.05 69.83C96.55 68.39 96.77 67.01 96.77 65.69C96.77 60.99 93.62 57.95 89.37 57.95L89.36 57.96Z" fill="white"/>
<path d="M56.31 57.74C52.28 57.74 48.96 59.07 46.31 61.66C43.6 64.31 42.28 67.68 42.28 71.77C42.28 75.86 43.61 79.23 46.31 81.88C48.96 84.53 52.28 85.86 56.31 85.86C60.34 85.86 63.66 84.53 66.31 81.88C68.96 79.23 70.29 75.86 70.29 71.77C70.29 67.68 68.96 64.31 66.31 61.66C63.66 59.06 60.34 57.74 56.31 57.74ZM62 78.51C60.56 80.17 58.68 81 56.31 81C53.94 81 52.06 80.17 50.67 78.51C49.23 76.85 48.52 74.59 48.52 71.77C48.52 66.08 51.61 62.6 56.31 62.6C61.01 62.6 64.1 66.19 64.1 71.77C64.1 74.59 63.38 76.85 62 78.51Z" fill="white"/>
<path d="M143.52 69.51L140.43 68.96C137.11 68.35 135.95 67.58 135.95 65.53C135.95 63.48 137.83 62.27 141.09 62.27C144.35 62.27 146.5 63.82 147.22 66.86L152.58 65.53C151.75 60.89 147.83 57.74 141.2 57.74C134.57 57.74 129.98 60.78 129.98 65.59C129.98 68.46 130.97 70.45 132.96 71.67C134.95 72.89 136.66 73.44 139.54 73.94L142.63 74.44C145.56 75.05 146.66 75.77 146.66 77.7C146.66 80.08 144.56 81.35 141.47 81.35C137.05 81.35 134.67 79.42 134.34 75.6L128.7 76.43C128.76 79.47 129.92 81.79 132.29 83.39C134.67 85.05 137.65 85.88 141.3 85.88C148.1 85.88 152.74 82.79 152.74 77.54C152.74 72.29 149.26 70.47 143.51 69.53L143.52 69.51Z" fill="white"/>
<path d="M28.46 78.68L23.04 58.4H17.07L11.71 78.68L6.24 58.4H0L8.23 85.2H14.81L20.06 66.14L25.36 85.2H31.88L40.11 58.4H33.87L28.46 78.68Z" fill="white"/>
</svg>
