<svg width="254" height="40" viewBox="0 0 254 40" fill="none" xmlns="http://www.w3.org/2000/svg">
<path fill-rule="evenodd" clip-rule="evenodd" d="M10.2769 17.2939V39.0631H4.2544V17.2939H0V12.2659H4.03339C3.31512 10.6636 2.98361 9.11657 2.98361 7.51427C2.98361 5.19368 3.81239 3.37037 5.5252 1.98907C7.18276 0.663022 9.22708 0 11.6029 0C14.3103 0 16.2993 0.663022 17.5701 1.98907L15.0285 5.96721C14.1445 5.08318 13.0947 4.64116 11.8239 4.64116C10.0559 4.64116 8.67456 5.91196 8.67456 8.12204C8.67456 9.28233 9.06132 10.6636 9.8901 12.2659H17.0176V17.2939H10.2769ZM27.184 4.19915C27.184 6.18822 25.5264 7.73528 23.4821 7.73528C21.3273 7.73528 19.7802 6.24347 19.7802 4.19915C19.7802 2.15483 21.3273 0.60777 23.4821 0.60777C25.5264 0.60777 27.184 2.15483 27.184 4.19915ZM26.4657 12.2659V39.0631H20.4985V12.2659H26.4657ZM54.2376 32.7092C55.1769 33.5379 56.5029 33.98 58.1052 33.98C58.6025 33.98 59.0445 33.9247 59.4313 33.8142L59.376 39.1184C58.6577 39.2842 57.829 39.3394 56.8897 39.3394C54.5138 39.3394 52.4695 38.7316 50.8672 37.5161C49.2096 36.3005 47.4416 34.2562 45.6183 31.4384L42.9109 27.1287L39.9273 30.0571V39.0631H33.9601V0.663022H39.9273V24.0899L51.6407 12.2659H59.0445L47.5521 23.4821L50.2594 27.6812C51.917 30.1676 53.243 31.8804 54.2376 32.7092ZM72.3637 39.7262C75.7893 39.7262 78.4966 38.4001 80.4305 35.6928V39.0631H86.2319V22.5428C86.2319 15.4153 81.867 11.6029 74.7948 11.6029C68.3303 11.6029 63.7996 15.139 62.3078 20.8852L67.7778 22.0455C68.6618 18.3437 70.9271 16.4651 74.5738 16.4651C78.1651 16.4651 80.2094 18.6752 80.2094 22.4876V25.7474C78.1099 23.8136 75.513 22.8191 72.4742 22.8191C69.4906 22.8191 67.0042 23.6478 65.0704 25.2502C63.0813 26.9077 62.0868 28.8968 62.0868 31.2726C62.0868 36.411 66.2307 39.7262 72.3637 39.7262ZM73.4687 35.306C70.3194 35.306 68.275 33.6484 68.275 31.2174C68.275 28.8415 70.3746 27.184 73.4687 27.184C76.1208 27.184 78.3861 28.289 80.2094 30.4991V31.3279C78.3861 33.98 76.1208 35.306 73.4687 35.306ZM222.774 32.9302C223.713 33.759 225.039 34.201 226.641 34.201C227.139 34.201 227.581 34.1457 227.967 34.0352L227.912 39.3394C227.194 39.5052 226.365 39.5604 225.426 39.5604C223.05 39.5604 221.006 38.9527 219.403 37.7371C217.746 36.5216 215.978 34.4772 214.154 31.6594L211.447 27.3497L208.464 30.2781V39.2842H202.496V0.884037H208.464V24.3109L220.177 12.487H227.581L216.088 23.7031L218.796 27.9023C220.453 30.3886 221.779 32.1014 222.774 32.9302ZM171.543 25.8579C171.543 29.9466 170.217 33.3169 167.565 35.969C164.912 38.6211 161.597 39.9472 157.564 39.9472C153.531 39.9472 150.215 38.6211 147.563 35.969C144.856 33.3169 143.53 29.9466 143.53 25.8579C143.53 21.7693 144.856 18.3989 147.563 15.7468C150.215 13.15 153.531 11.8239 157.564 11.8239C161.597 11.8239 164.912 13.15 167.565 15.7468C170.217 18.3989 171.543 21.7693 171.543 25.8579ZM149.773 25.8579C149.773 28.6758 150.492 30.9411 151.928 32.5987C153.31 34.2562 155.188 35.085 157.564 35.085C159.94 35.085 161.818 34.2562 163.255 32.5987C164.636 30.9411 165.354 28.6758 165.354 25.8579C165.354 20.2775 162.205 16.6861 157.564 16.6861C152.868 16.6861 149.773 20.167 149.773 25.8579ZM121.31 20.2222L116.061 39.2842H109.486L101.253 12.487H107.497L112.967 32.7644L118.326 12.487H124.293L129.708 32.7644L135.123 12.487H141.366L133.134 39.2842H126.614L121.31 20.2222ZM183.158 39.2842V25.9684C183.158 20.609 185.534 17.0176 188.628 17.0176C190.893 17.0176 192.053 18.3989 192.053 21.1615C192.053 21.5483 191.998 22.2666 191.832 23.3716L197.302 23.9241C197.799 22.4876 198.02 21.1063 198.02 19.7802C198.02 15.0838 194.871 12.0449 190.617 12.0449C187.025 12.0449 184.484 13.7577 182.992 17.1281V12.487H177.19V39.2842H183.158ZM242.564 39.9472C249.36 39.9472 254.001 36.8531 254.001 31.6041C254.001 26.4657 250.52 24.5319 244.774 23.5926L241.68 23.0401C238.365 22.4323 237.204 21.6588 237.204 19.6145C237.204 17.5701 239.083 16.3546 242.343 16.3546C245.713 16.3546 247.758 17.9016 248.476 20.9405L253.835 19.6145C253.007 14.9733 249.084 11.8239 242.453 11.8239C235.547 11.8239 231.237 14.8628 231.237 19.6697C231.237 22.5428 232.232 24.5319 234.221 25.7474C236.21 26.963 237.923 27.5155 240.796 28.0128L243.89 28.51C246.818 29.1178 247.923 29.8361 247.923 31.7699C247.923 34.1457 245.824 35.4165 242.73 35.4165C238.31 35.4165 235.934 33.4827 235.602 29.6703L229.966 30.4991C230.022 33.538 231.182 35.8585 233.558 37.4608C235.934 39.1184 238.917 39.9472 242.564 39.9472ZM97.0228 39.7262C98.9758 39.7262 100.559 38.143 100.559 36.1901C100.559 34.2371 98.9758 32.6539 97.0228 32.6539C95.0699 32.6539 93.4867 34.2371 93.4867 36.1901C93.4867 38.143 95.0699 39.7262 97.0228 39.7262Z" fill="black"/>
</svg>
